<svg id="Layer_1" data-name="Layer 1" xmlns="http://www.w3.org/2000/svg" viewBox="0 0 40.2 31.1"><defs><style>.cls-1{fill:none;stroke:#e55743;stroke-miterlimit:10;stroke-width:2px;}</style></defs><title>vector-hand</title><path class="cls-1" d="M24,1a2.82,2.82,0,0,0-2.2,1.08A3.34,3.34,0,0,0,21,4.2a2.81,2.81,0,0,0,.85,2.05l4.21,4a.3.3,0,0,1,.08.21.36.36,0,0,1-.24.13H3.7a2.46,2.46,0,1,0,0,4.9H17.3a.18.18,0,0,1,.2.2.19.19,0,0,1-.2.2H15.4a2.72,2.72,0,0,0-2.7,2.9,2.41,2.41,0,0,0,2.4,2.4h2.7a.18.18,0,0,1,.2.2.19.19,0,0,1-.2.2H16.6a2.4,2.4,0,0,0,0,4.8h3.1a.18.18,0,0,1,.2.2.19.19,0,0,1-.2.2H18.12a1,1,0,0,0-.92.6,2,2,0,0,0-.2.8,1.88,1.88,0,0,0,1.9,1.9c.12,0,11.85-.07,14.62-1.46,3-1.39,5.68-3.11,5.68-8.74,0-5.41-2.8-8.21-6-11.46l-.61-.6c-3-2.9-5.36-5-6.13-5.76l-.28-.25-.07-.07A3.32,3.32,0,0,0,24,1Z"/></svg>