<?xml version="1.0" encoding="utf-8"?>
<!-- Generator: Adobe Illustrator 22.1.0, SVG Export Plug-In . SVG Version: 6.00 Build 0)  -->
<svg version="1.1" id="Layer_1" xmlns="http://www.w3.org/2000/svg" xmlns:xlink="http://www.w3.org/1999/xlink" x="0px" y="0px"
	 viewBox="0 0 42 33" style="enable-background:new 0 0 42 33;" xml:space="preserve">
<style type="text/css">
	.st0{fill:#E55743;}
</style>
<g>
	<path class="st0" d="M24.9,2.4c0.7,0,1.3,0.3,1.8,0.7c0.1,0.1,2.8,2.5,6.4,6l0.6,0.6c3.3,3.3,5.9,5.9,5.9,11.1
		c0,5.2-2.4,6.9-5.4,8.3c-2.2,1.1-11.1,1.4-14.4,1.4c-0.8,0-1.4-0.6-1.4-1.4c0-0.3,0.2-0.7,0.3-0.9h1.9c0.4,0,0.7-0.3,0.7-0.7
		c0-0.4-0.3-0.7-0.7-0.7h-3.1c-1.1,0-1.9-0.9-1.9-1.9c0-1.1,0.9-1.9,1.9-1.9h1.2c0.4,0,0.7-0.3,0.7-0.7c0-0.4-0.3-0.7-0.7-0.7h-2.7
		c-1.1,0-1.9-0.9-1.9-1.9c0-1,0.6-2.4,2.2-2.4h1.9c0.4,0,0.7-0.3,0.7-0.7c0-0.4-0.3-0.7-0.7-0.7H4.6c-1.3,0-2.2-0.8-2.2-2
		c0-1.1,0.9-1.9,2.2-1.9l22.2,0c0.3,0,0.6-0.2,0.7-0.4c0.1-0.3,0-0.6-0.2-0.8l-4.2-4c-0.5-0.5-0.7-1.1-0.7-1.7
		c0-0.7,0.3-1.3,0.7-1.8C23.6,2.7,24.2,2.4,24.9,2.4C24.9,2.4,24.9,2.4,24.9,2.4 M24.9,0.4C24.9,0.4,24.9,0.4,24.9,0.4
		c-1.2,0-2.4,0.5-3.2,1.3c-0.9,0.8-1.3,2-1.3,3.2c0,1.2,0.5,2.3,1.3,3.2l1.9,1.8l-19,0c-2.4,0-4.2,1.7-4.2,3.9c0,2.3,1.8,4,4.2,4
		h7.8c-0.2,0.6-0.4,1.2-0.4,1.8c0,1.4,0.8,2.7,1.9,3.4c-0.3,0.6-0.5,1.2-0.5,1.9c0,1.8,1.2,3.3,2.9,3.8c0,0.2,0,0.3,0,0.5
		c0,1.9,1.5,3.4,3.4,3.4c1.2,0,12.2,0,15.3-1.6c3.1-1.6,6.5-3.8,6.5-10.1c0-6.1-3.2-9.2-6.5-12.5l-0.6-0.6c-3-3-5.5-5.3-6.4-6.1
		C27.2,0.9,26.1,0.4,24.9,0.4L24.9,0.4z"/>
</g>
</svg>
