<svg width="80" height="80" viewBox="0 0 80 80" fill="none" xmlns="http://www.w3.org/2000/svg">
<path d="M40 80C62.0914 80 80 62.0914 80 40C80 17.9086 62.0914 0 40 0C17.9086 0 0 17.9086 0 40C0 62.0914 17.9086 80 40 80Z" fill="#FF6C6A"/>
<path d="M13.5767 37.7357L17.2131 38.1398C17.3747 38.1398 17.4555 38.3014 17.4555 38.463L17.3747 39.1903C17.3747 39.3519 17.2131 39.4327 17.0515 39.4327L8.56664 38.3822C8.40503 38.3822 8.32422 38.2206 8.32422 38.0589L8.80907 33.9377C8.80907 33.7761 8.97068 33.6953 9.1323 33.6953L9.85957 33.7761C10.0212 33.7761 10.102 33.9377 10.102 34.0994L9.77876 37.1701C9.77876 37.2509 9.77876 37.3317 9.85957 37.3317L12.203 37.5741C12.2838 37.5741 12.3646 37.5741 12.3646 37.4933L12.6879 34.5842C12.6879 34.4226 12.8495 34.3418 13.0111 34.3418L13.7384 34.4226C13.9 34.4226 13.9808 34.5842 13.9808 34.7458L13.4959 37.5741C13.4151 37.6549 13.4959 37.7357 13.5767 37.7357Z" fill="white"/>
<path d="M15.6772 32.2409C15.6772 32.3217 15.6772 32.4025 15.758 32.4025C16.8893 32.8066 17.5357 32.4025 17.859 31.5944C18.1014 30.948 17.9398 30.3823 17.5357 30.0591C17.3741 29.9783 17.3741 29.8167 17.4549 29.7359L17.6974 29.0894C17.7782 29.0086 17.859 28.847 18.0206 29.0086C18.9903 29.5742 19.3943 30.7864 18.9903 32.0793C18.4246 33.5338 17.0509 34.0995 15.758 33.6955C15.2731 33.5338 14.5458 33.2914 14.061 33.049C12.8489 32.4833 12.1216 31.1904 12.6873 29.7359C13.2529 28.2813 14.5458 27.6349 16.0004 28.2005L16.8085 28.5237C16.9701 28.6045 16.9701 28.6854 16.9701 28.847L15.6772 32.2409ZM14.5458 31.9177C14.6267 31.9177 14.7075 31.9177 14.7075 31.8369L15.6772 29.3318C15.6772 29.251 15.6772 29.1702 15.5964 29.1702C14.7883 28.847 14.061 29.251 13.7378 30.0591C13.4145 30.8672 13.8186 31.6753 14.5458 31.9177Z" fill="white"/>
<path d="M16.9714 25.1306C17.133 25.2922 17.0522 25.373 16.9714 25.5346L16.6482 26.0195C16.5674 26.1811 16.4057 26.1811 16.3249 26.1003C15.3552 25.373 15.5977 24.0801 16.1633 23.1104C16.9714 21.8983 18.0219 21.575 19.234 22.3831L22.7088 24.8073C22.7896 24.8882 22.8704 25.0498 22.7896 25.1306L22.5472 25.4538C22.4663 25.5346 22.4663 25.5346 22.3855 25.5346C22.2239 25.5346 22.0623 25.4538 21.9815 25.6154C21.8199 25.777 22.0623 26.3427 21.4966 27.1508C20.6078 28.4437 19.3148 28.5245 18.4259 27.8781C17.5371 27.2316 17.2946 26.1003 18.0219 24.969L18.9108 23.676C18.9916 23.5952 18.9108 23.5144 18.9108 23.5144L18.5067 23.1912C17.9411 22.7871 17.3754 22.9488 16.9714 23.5952C16.729 24.0801 16.4865 24.8073 16.9714 25.1306ZM18.9108 25.6962C18.5067 26.2619 18.6684 26.6659 19.0724 26.9892C19.5573 27.3932 20.1229 27.2316 20.527 26.6659C21.1734 25.6962 21.0926 25.0498 20.3653 24.5649L20.0421 24.3225C19.9613 24.2417 19.8805 24.3225 19.8805 24.3225L18.9108 25.6962Z" fill="white"/>
<path d="M21.8193 17.2923C21.9001 17.2115 22.0617 17.2115 22.2233 17.2923L22.6274 17.7771C22.7082 17.8579 22.7082 18.0196 22.6274 18.1812L21.4961 19.1509C21.4152 19.2317 21.4152 19.3125 21.4961 19.3125L23.5163 21.5751C23.9203 21.9791 24.3243 22.1408 24.89 21.5751L25.4556 21.0903C25.5365 21.0094 25.6981 21.0094 25.8597 21.0903L26.2637 21.5751C26.3445 21.6559 26.3445 21.8175 26.2637 21.9791L25.6981 22.464C24.7284 23.3529 23.6779 23.5145 22.7082 22.3832L20.688 20.1206C20.6072 20.0398 20.5264 20.0398 20.5264 20.1206L19.7991 20.6862C19.7183 20.767 19.5567 20.767 19.395 20.6862L18.991 20.2014C18.9102 20.1206 18.9102 19.9589 18.991 19.7973L19.6375 19.1509C19.7183 19.0701 19.7183 18.9892 19.6375 18.9892L18.2637 17.5347C18.1829 17.4539 18.1829 17.2923 18.2637 17.1307L18.7486 16.7266C18.8294 16.6458 18.991 16.6458 19.1526 16.7266L20.5264 18.1812C20.6072 18.262 20.688 18.262 20.688 18.1812L21.8193 17.2923Z" fill="white"/>
<path d="M23.678 16.0803C23.5972 15.9187 23.678 15.8378 23.7588 15.757L24.3245 15.4338C24.4861 15.353 24.5669 15.4338 24.6477 15.5146L26.5063 18.9086C26.9103 19.555 27.6376 19.7974 28.3649 19.3126C29.0921 18.9086 29.3346 18.1813 29.0113 17.5348L27.1527 14.1409C27.0719 13.9793 27.1528 13.8984 27.2336 13.8176L27.7992 13.4944C27.9608 13.4136 28.0416 13.4944 28.1224 13.5752L31.0315 18.7469C31.1123 18.9086 31.0315 18.9894 30.9507 19.0702L30.4659 19.3126C30.3851 19.3126 30.3043 19.3126 30.3043 19.3126C30.2235 19.2318 30.0618 19.2318 29.9002 19.3126C29.577 19.4742 29.7386 19.8782 28.9305 20.3631C27.6376 21.0904 26.2639 20.6863 25.6174 19.3934L23.678 16.0803Z" fill="white"/>
<path d="M33.6991 12.6858C32.7294 13.009 32.0021 13.7363 32.4062 15.11L33.2951 18.0999C33.2951 18.2615 33.2951 18.3423 33.1335 18.4231L32.487 18.5847C32.3254 18.5847 32.2446 18.5847 32.1638 18.4231L30.4668 12.6858C30.4668 12.5241 30.4668 12.4433 30.6284 12.3625L31.0325 12.2009C31.1941 12.2009 31.2749 12.2009 31.3557 12.3625C31.4365 12.5241 31.5173 12.7666 31.6789 12.7666C32.0022 12.6858 32.0022 11.9585 33.2951 11.5544L33.5375 11.4736C33.6991 11.4736 33.7799 11.4736 33.8607 11.6352L34.0224 12.2817C34.0224 12.4433 34.0224 12.5241 33.8607 12.6049L33.6991 12.6858Z" fill="white"/>
<path d="M36.6081 14.7062C36.5273 14.7062 36.4465 14.787 36.5273 14.8678C36.6081 16.0799 37.2546 16.484 38.1435 16.4031C38.7899 16.3223 39.2748 15.9991 39.4364 15.5143C39.4364 15.3526 39.598 15.2718 39.6788 15.2718L40.3253 15.191C40.4869 15.191 40.5677 15.2718 40.5677 15.4335C40.4869 16.5648 39.598 17.4537 38.2243 17.5345C36.6889 17.6961 35.6384 16.6456 35.396 15.2718C35.3152 14.787 35.2344 13.9789 35.2344 13.4941C35.2344 12.1203 36.1233 10.989 37.6586 10.8274C39.194 10.6658 40.3253 11.5547 40.4061 13.1708L40.4869 14.0597C40.4869 14.2213 40.4061 14.3021 40.2445 14.3021L36.6081 14.7062ZM36.4465 13.5749C36.4465 13.6557 36.5273 13.7365 36.6081 13.6557L39.2748 13.4133C39.3556 13.4133 39.4364 13.3324 39.3556 13.2516C39.2748 12.3627 38.5475 11.8779 37.8202 11.9587C36.9313 12.1203 36.3657 12.7668 36.4465 13.5749Z" fill="white"/>
<path d="M41.697 14.9485C41.7778 14.4637 41.8586 13.6556 42.0202 13.1708C42.3434 11.8778 43.5555 10.9081 44.8485 11.1506C45.4141 11.2314 45.7374 11.6354 45.9798 11.7162C46.1414 11.7162 46.303 11.7162 46.303 11.4738L46.7071 9.21117C46.7071 9.04956 46.8687 8.96875 47.0303 8.96875L47.6768 9.04956C47.8384 9.04956 47.9192 9.21117 47.9192 9.37279L46.3838 17.8576C46.3838 18.0193 46.2222 18.1001 46.0606 18.1001L45.6566 18.0193C45.5757 18.0193 45.5757 17.9384 45.4949 17.9384C45.4141 17.8576 45.3333 17.696 45.2525 17.696C44.8485 17.6152 44.6869 18.0193 43.7172 17.8576C42.4242 17.5344 41.6161 16.3223 41.697 14.9485ZM42.8283 15.191C42.7475 15.8374 43.1515 16.5647 44.0404 16.7263C44.9293 16.8879 45.5757 16.4031 45.7374 15.6758C45.899 15.191 45.9798 14.3829 46.0606 13.898C46.1414 13.2516 45.7374 12.5243 44.8485 12.3627C43.9596 12.2011 43.3131 12.6859 43.1515 13.4132C42.9899 13.898 42.9091 14.6253 42.8283 15.191Z" fill="white"/>
<path d="M71.355 44.2824C71.1933 45.7369 69.8196 46.7874 68.2842 46.6258C66.8297 46.4642 65.7792 45.0904 65.9408 43.5551L66.1024 42.343C66.1024 42.2622 66.1024 42.1813 66.0216 42.1813L62.7893 41.7773C62.6277 41.7773 62.5469 41.6157 62.5469 41.4541L62.6277 40.7268C62.6277 40.5652 62.7893 40.4844 62.9509 40.4844L71.4358 41.5349C71.5974 41.5349 71.6782 41.6965 71.6782 41.8581L71.355 44.2824ZM70.3044 42.9086C70.3044 42.8278 70.3045 42.747 70.2236 42.747L67.557 42.4238C67.4762 42.4238 67.3954 42.4238 67.3954 42.5046L67.2337 43.7167C67.1529 44.5248 67.7186 45.2521 68.5267 45.4137C69.3348 45.4945 70.062 44.9288 70.2236 44.1207L70.3044 42.9086Z" fill="white"/>
<path d="M65.7794 50.908C66.1026 49.9383 65.941 48.8878 64.5673 48.403L61.6582 47.3525C61.4965 47.2717 61.4157 47.1909 61.4965 47.0292L61.739 46.3828C61.8198 46.2212 61.9006 46.1403 62.0622 46.2212L67.638 48.2414C67.7996 48.3222 67.8804 48.403 67.7996 48.5646L67.638 48.9686C67.5571 49.1302 67.4763 49.1302 67.3147 49.1302C67.1531 49.1302 66.9107 49.0494 66.8299 49.2111C66.7491 49.5343 67.3147 49.9383 66.8299 51.2313L66.7491 51.4737C66.6683 51.6353 66.5875 51.7161 66.4258 51.6353L65.8602 51.4737C65.6986 51.3929 65.6178 51.3121 65.6986 51.1504L65.7794 50.908Z" fill="white"/>
<path d="M64.2428 51.6357C65.3741 52.4438 65.7781 53.8175 64.97 55.1913C64.162 56.565 62.7074 56.8074 61.4953 56.161C61.0104 55.9185 60.364 55.5145 59.9599 55.1913C58.8286 54.3832 58.4246 53.0094 59.2327 51.6357C60.0408 50.3428 61.4953 50.0195 62.7074 50.666C63.1923 50.9084 63.8387 51.3125 64.2428 51.6357ZM62.061 51.7165C61.4145 51.3933 60.6872 51.5549 60.2024 52.2822C59.7175 53.0094 59.9599 53.8175 60.5256 54.2216C60.9296 54.5448 61.5761 54.9488 62.061 55.1913C62.7074 55.5145 63.4347 55.3529 63.9195 54.6256C64.4044 53.8983 64.162 53.0902 63.5963 52.6862C63.1923 52.363 62.5458 51.9589 62.061 51.7165Z" fill="white"/>
<path d="M61.5773 59.1505C61.6581 59.2313 61.6581 59.3929 61.5773 59.5545L61.0925 60.0394C61.0117 60.1202 60.85 60.1202 60.6884 60.0394L55.8399 55.5949C54.951 54.7868 54.7894 53.2515 55.7591 52.2818L56.244 51.7969C56.3248 51.7161 56.4864 51.7161 56.648 51.7969L57.1329 52.201C57.2137 52.2818 57.2137 52.4434 57.1329 52.605L56.648 53.0899C56.244 53.5747 56.244 54.302 56.7288 54.706L61.5773 59.1505ZM62.0622 61.3323C61.9814 61.2515 61.9814 61.0899 62.0622 61.0091L62.6278 60.3626C62.7086 60.2818 62.8702 60.2818 62.951 60.3626L63.5975 60.9283C63.6783 61.0091 63.6783 61.1707 63.5975 61.2515L63.0319 61.8979C62.951 61.9788 62.7894 61.9788 62.7086 61.8979L62.0622 61.3323Z" fill="white"/>
<path d="M56.2437 59.7161C56.3245 59.6353 56.3245 59.6353 56.2437 59.5545C55.5164 58.5848 54.7084 58.5848 54.0619 59.0697C53.4962 59.4737 53.3346 60.0394 53.4962 60.5242C53.577 60.6858 53.4962 60.8474 53.4154 60.8474L52.8498 61.2515C52.769 61.3323 52.6073 61.3323 52.5265 61.1707C51.9609 60.201 52.2841 58.908 53.4154 58.1C54.6275 57.2111 56.0821 57.4535 56.971 58.504C57.2942 58.908 57.7791 59.5545 58.0215 59.9585C58.7488 61.0899 58.5871 62.6252 57.375 63.5141C56.0821 64.4838 54.7084 64.2414 53.7387 62.9484L53.173 62.2212C53.0922 62.1404 53.0922 61.9787 53.2538 61.8979L56.2437 59.7161ZM56.971 60.605C56.8902 60.5242 56.8902 60.5242 56.8094 60.605L54.6275 62.2212C54.5467 62.302 54.5467 62.302 54.6275 62.3828C55.1932 63.1101 56.0013 63.1101 56.6478 62.6252C57.375 62.0596 57.4558 61.1707 56.971 60.605Z" fill="white"/>
<path d="M47.8397 63.7568L47.1932 63.9992C47.0316 64.08 46.87 63.9992 46.87 63.8376C46.3851 62.7063 47.0316 61.4134 48.3245 60.8477C49.7791 60.282 51.072 60.9285 51.6376 62.1406C51.8801 62.6255 52.1225 63.3527 52.2841 63.8376C52.6881 65.1305 52.2841 66.5043 50.8296 67.0699C49.4558 67.6356 48.1629 67.1507 47.678 65.9386C47.5972 65.777 47.678 65.6962 47.7588 65.6154L48.4053 65.3729C48.4861 65.2921 48.6477 65.3729 48.7285 65.4538C48.971 66.0194 49.6174 66.2618 50.3447 65.9386C51.1528 65.6154 51.3952 64.8881 51.1528 64.2416C50.9912 63.7568 50.6679 63.0295 50.5063 62.5447C50.1831 61.8982 49.5366 61.575 48.7285 61.8982C48.0013 62.2214 47.678 62.7871 47.9205 63.3527C48.0821 63.5952 47.9205 63.676 47.8397 63.7568Z" fill="white"/>
<path d="M43.0717 68.9287C42.9101 68.9287 42.8293 68.8479 42.7485 68.6863L42.6677 68.0398C42.6677 67.8782 42.7485 67.7974 42.9101 67.7166L44.3647 67.4742C44.4455 67.4742 44.4455 67.3934 44.4455 67.3126L43.9606 64.3227C43.8798 63.757 43.5566 63.4338 42.7485 63.5954L42.0212 63.6762C41.8596 63.6762 41.7788 63.5954 41.698 63.4338L41.6172 62.9489C41.6172 62.7873 41.698 62.7065 41.8596 62.6257L42.5869 62.5449C43.8798 62.3025 44.8495 62.7873 45.0919 64.2418L45.5768 67.2317C45.5768 67.3126 45.6576 67.3126 45.7384 67.3126L46.6273 67.1509C46.7889 67.1509 46.8697 67.2317 46.9505 67.3934L47.0313 68.0398C47.0313 68.2014 46.9505 68.2823 46.7889 68.3631L45.9 68.5247C45.8192 68.5247 45.8192 68.6055 45.8192 68.6863L46.1424 70.6257C46.1424 70.7873 46.0616 70.8681 45.9 70.9489L45.2536 71.0297C45.0919 71.0297 45.0111 70.9489 44.9303 70.7873L44.6071 68.8479C44.6071 68.7671 44.5263 68.7671 44.4455 68.7671L43.0717 68.9287Z" fill="white"/>
</svg>
